<?xml version="1.0"?>
<svg xmlns="http://www.w3.org/2000/svg" id="Capa_1" enable-background="new 0 0 512 512" height="512px" viewBox="0 0 512 512" width="512px" class=""><g transform="matrix(0.9999 0 0 0.9999 0.0256 0.0256)"><g><g><g><path d="m359.579 130.619h-35v-43.126c0-6.893-5.607-12.5-12.5-12.5h-112.158c-6.893 0-12.5 5.607-12.5 12.5v43.126h-35v-53.126c0-20.678 16.822-37.5 37.5-37.5h132.157c20.678 0 37.5 16.822 37.5 37.5v53.126z" fill="#fed402" data-original="#FED402" class=""/></g><path d="m459.5 472.007h-417c-19.33 0-35-15.67-35-35v-281.388c0-19.33 15.67-35 35-35h417c19.33 0 35 15.67 35 35v281.388c0 19.33-15.67 35-35 35z" fill="#d1a4a4" data-original="#D1A4A4" class="active-path" style="fill:#8FAFD7" data-old_color="#d1a4a4"/><path d="m369.579 394.214h81.766c5.523 0 10 4.477 10 10v23.924c0 5.523-4.477 10-10 10h-81.766c-5.523 0-10-4.477-10-10v-23.924c0-5.523 4.477-10 10-10z" fill="#efedef" data-original="#EFEDEF" class=""/><path d="m469.5 120.619h-427c-19.33 0-35 15.67-35 35v130.194c0 19.33 15.67 35 35 35h152.393c5.523 0 10 4.477 10 10v20.658c0 5.523 4.477 10 10 10h82.215c5.523 0 10-4.477 10-10v-20.658c0-5.523 4.477-10 10-10h147.392c5.523 0 10 4.477 10 10v106.194c0 19.33-15.67 35-35 35h30c19.33 0 35-15.67 35-35v-281.388c0-19.33-15.67-35-35-35z" fill="#c59191" data-original="#C59191" class="" style="fill:#04458F" data-old_color="#c59191"/><path d="m459.5 120.619h-417c-19.33 0-35 15.67-35 35v105.694c0 19.33 15.67 35 35 35h417c19.33 0 35-15.67 35-35v-105.694c0-19.33-15.67-35-35-35z" fill="#b98080" data-original="#B98080" class="" style="fill:#6DA8F1" data-old_color="#b98080"/><path d="m469.5 120.619h-30c19.33 0 35 15.67 35 35v105.694c0 19.33-15.67 35-35 35h30c19.33 0 35-15.67 35-35v-105.694c0-19.33-15.67-35-35-35z" fill="#ae6c6c" data-original="#AE6C6C" class="" data-old_color="#ae6c6c" style="fill:#0B57B5"/><path d="m282.328 345.471h-52.655c-5.523 0-10-4.477-10-10v-39.158h72.655v39.158c0 5.523-4.478 10-10 10z" fill="#fed402" data-original="#FED402" class=""/></g><g id="_x31_0_briefcase_1_"><path d="m0 437.007c0 23.435 19.065 42.5 42.5 42.5h42.414c4.143 0 7.5-3.358 7.5-7.5s-3.357-7.5-7.5-7.5h-42.414c-15.164 0-27.5-12.336-27.5-27.5v-143.328c7.419 6.313 17.019 10.134 27.5 10.134h169.673v31.658c0 9.649 7.851 17.5 17.5 17.5h52.654c9.65 0 17.5-7.851 17.5-17.5v-31.658h84.879c4.143 0 7.5-3.358 7.5-7.5s-3.357-7.5-7.5-7.5h-342.206c-15.164 0-27.5-12.336-27.5-27.5v-105.694c0-15.163 12.336-27.5 27.5-27.5h427c15.164 0 27.5 12.337 27.5 27.5v105.694c0 15.164-12.336 27.5-27.5 27.5h-51.906c-4.143 0-7.5 3.358-7.5 7.5s3.357 7.5 7.5 7.5h51.906c10.481 0 20.082-3.822 27.5-10.134v143.328c0 15.164-12.336 27.5-27.5 27.5h-351.698c-4.143 0-7.5 3.358-7.5 7.5s3.357 7.5 7.5 7.5h351.698c23.435 0 42.5-19.065 42.5-42.5v-281.388c0-23.434-19.065-42.5-42.5-42.5h-102.422v-35.626c0-24.813-20.186-45-45-45h-76.684c-4.143 0-7.5 3.358-7.5 7.5s3.357 7.5 7.5 7.5h76.684c16.542 0 30 13.458 30 30v35.626h-20v-25.626c0-11.028-8.972-20-20-20h-112.156c-11.028 0-20 8.972-20 20v25.626h-20v-35.626c0-16.542 13.458-30 30-30h22.585c4.143 0 7.5-3.358 7.5-7.5s-3.357-7.5-7.5-7.5h-22.585c-24.814 0-45 20.187-45 45v35.626h-102.422c-23.435 0-42.5 19.065-42.5 42.5zm284.827-133.194v31.658c0 1.378-1.121 2.5-2.5 2.5h-52.654c-1.379 0-2.5-1.122-2.5-2.5v-31.658zm-89.905-216.32c0-2.757 2.243-5 5-5h112.156c2.757 0 5 2.243 5 5v25.626h-122.156z" data-original="#000000" class="" style="fill:#021B3A" data-old_color="#000000"/><circle cx="256" cy="320.892" r="7.5" data-original="#000000" class="" style="fill:#021B3A" data-old_color="#000000"/><path d="m451.345 445.638c9.649 0 17.5-7.851 17.5-17.5v-23.924c0-9.649-7.851-17.5-17.5-17.5h-81.767c-9.649 0-17.5 7.851-17.5 17.5v23.924c0 9.649 7.851 17.5 17.5 17.5zm2.5-41.424v23.924c0 1.378-1.121 2.5-2.5 2.5h-39.004l13.17-28.924h25.834c1.379 0 2.5 1.121 2.5 2.5zm-86.767 23.924v-23.924c0-1.379 1.121-2.5 2.5-2.5h39.45l-13.17 28.924h-26.28c-1.379 0-2.5-1.122-2.5-2.5z" data-original="#000000" class="" style="fill:#021B3A" data-old_color="#000000"/></g></g></g> </svg>
